<?xml version="1.0" standalone="no"?>
<!DOCTYPE svg PUBLIC "-//W3C//DTD SVG 20010904//EN"
 "http://www.w3.org/TR/2001/REC-SVG-20010904/DTD/svg10.dtd">
<svg version="1.0" xmlns="http://www.w3.org/2000/svg"
 width="130.000000pt" height="130.000000pt" viewBox="0 0 130.000000 130.000000"
 preserveAspectRatio="xMidYMid meet">

<g transform="translate(0.000000,130.000000) scale(0.100000,-0.100000)"
fill="#000000" stroke="none">
<path d="M456 1181 c-14 -15 -16 -36 -14 -122 l3 -104 32 -15 c25 -12 33 -21
33 -42 0 -26 -3 -28 -37 -28 -21 -1 -49 -7 -63 -15 -14 -7 -63 -71 -110 -142
-94 -141 -78 -130 -238 -173 -56 -15 -62 -32 -62 -176 0 -139 9 -154 92 -154
48 -1 55 -4 73 -33 29 -46 81 -77 128 -77 52 0 120 40 137 80 l12 30 172 0
171 0 13 -30 c32 -72 145 -103 212 -58 19 13 44 38 55 55 20 32 20 32 107 33
128 0 128 0 128 188 0 167 -6 182 -69 182 -43 0 -64 24 -134 147 -62 110 -94
143 -138 143 -25 0 -29 4 -29 28 0 21 8 30 33 42 l32 15 3 104 c4 151 24 141
-278 141 -228 0 -248 -1 -264 -19z m115 -51 c20 -11 26 -45 9 -55 -7 -4 -7
-12 0 -25 15 -27 12 -50 -5 -50 -9 0 -21 12 -27 28 l-12 27 -4 -27 c-2 -20 -9
-28 -23 -28 -17 0 -19 7 -19 70 l0 70 31 0 c17 0 39 -5 50 -10z m126 -7 c3 -7
-8 -13 -24 -15 -33 -4 -37 -22 -5 -26 31 -5 29 -32 -3 -32 -14 0 -25 -4 -25
-10 0 -5 14 -10 30 -10 20 0 30 -5 30 -15 0 -11 -12 -15 -45 -15 l-45 0 0 71
0 70 42 -3 c23 -2 43 -8 45 -15z m76 -20 l22 -38 3 38 c2 24 8 37 18 37 11 0
14 -16 14 -70 0 -63 -2 -70 -20 -70 -12 0 -27 13 -39 38 l-20 37 -1 -37 c0
-31 -4 -38 -20 -38 -18 0 -20 7 -20 63 0 35 3 67 7 70 15 16 35 5 56 -30z
m177 22 c0 -8 -7 -15 -15 -15 -12 0 -15 -13 -15 -55 0 -48 -3 -55 -19 -55 -17
0 -20 8 -23 53 -2 31 -8 52 -15 52 -17 0 -26 12 -18 24 3 6 28 11 56 11 37 0
49 -4 49 -15z m-70 -225 l0 -30 -160 0 -160 0 0 30 0 30 160 0 160 0 0 -30z
m-210 -215 l0 -115 -168 0 c-93 0 -171 3 -175 6 -15 15 103 201 136 214 12 5
64 9 115 9 l92 1 0 -115z m279 102 c24 -12 121 -176 121 -204 0 -10 -32 -13
-155 -13 l-155 0 0 115 0 115 83 0 c45 0 93 -6 106 -13z m-602 -479 c50 -47
17 -128 -52 -128 -45 0 -75 29 -75 72 0 68 78 102 127 56z m640 0 c47 -44 14
-128 -49 -128 -41 0 -63 14 -77 49 -10 24 -10 34 3 59 9 17 21 32 28 35 31 13
73 6 95 -15z"/>
<path d="M530 1095 c0 -8 5 -15 10 -15 6 0 10 7 10 15 0 8 -4 15 -10 15 -5 0
-10 -7 -10 -15z"/>
</g>
</svg>
